<mxfile host="app.diagrams.net" modified="2020-10-01T16:39:01.922Z" agent="5.0 (Windows NT 10.0; Win64; x64) AppleWebKit/537.36 (KHTML, like Gecko) Chrome/85.0.4183.121 Safari/537.36" etag="LwUgTViW8HDVDSo5jJXT" version="13.7.7" type="github">
  <diagram id="WVqrniovq2-4PGiDyEfr" name="Page-1">
    <mxGraphModel dx="1038" dy="617" grid="1" gridSize="10" guides="1" tooltips="1" connect="1" arrows="1" fold="1" page="1" pageScale="1" pageWidth="850" pageHeight="1100" math="0" shadow="0">
      <root>
        <mxCell id="0" />
        <mxCell id="1" parent="0" />
        <mxCell id="qfNypd04JLW2_YkX-gpg-1" value="" style="rounded=0;whiteSpace=wrap;html=1;" vertex="1" parent="1">
          <mxGeometry width="850" height="80" as="geometry" />
        </mxCell>
        <mxCell id="qfNypd04JLW2_YkX-gpg-2" value="" style="ellipse;whiteSpace=wrap;html=1;aspect=fixed;" vertex="1" parent="1">
          <mxGeometry x="90" width="80" height="80" as="geometry" />
        </mxCell>
        <mxCell id="qfNypd04JLW2_YkX-gpg-3" value="" style="rounded=0;whiteSpace=wrap;html=1;" vertex="1" parent="1">
          <mxGeometry y="1040" width="850" height="60" as="geometry" />
        </mxCell>
        <mxCell id="qfNypd04JLW2_YkX-gpg-4" value="" style="ellipse;whiteSpace=wrap;html=1;aspect=fixed;" vertex="1" parent="1">
          <mxGeometry x="395" y="1040" width="60" height="60" as="geometry" />
        </mxCell>
        <mxCell id="qfNypd04JLW2_YkX-gpg-5" value="" style="rounded=0;whiteSpace=wrap;html=1;" vertex="1" parent="1">
          <mxGeometry x="10" y="80" width="830" height="60" as="geometry" />
        </mxCell>
        <mxCell id="qfNypd04JLW2_YkX-gpg-6" value="home" style="text;html=1;strokeColor=none;fillColor=none;align=center;verticalAlign=middle;whiteSpace=wrap;rounded=0;" vertex="1" parent="1">
          <mxGeometry x="10" y="80" width="145" height="60" as="geometry" />
        </mxCell>
        <mxCell id="qfNypd04JLW2_YkX-gpg-7" value="drop down" style="text;html=1;strokeColor=none;fillColor=none;align=center;verticalAlign=middle;whiteSpace=wrap;rounded=0;" vertex="1" parent="1">
          <mxGeometry x="130" y="80" width="140" height="60" as="geometry" />
        </mxCell>
        <mxCell id="qfNypd04JLW2_YkX-gpg-8" value="search bar" style="rounded=0;whiteSpace=wrap;html=1;" vertex="1" parent="1">
          <mxGeometry x="298" y="200" width="255" height="30" as="geometry" />
        </mxCell>
        <mxCell id="qfNypd04JLW2_YkX-gpg-9" value="enter" style="rounded=0;whiteSpace=wrap;html=1;" vertex="1" parent="1">
          <mxGeometry x="590" y="205" width="90" height="20" as="geometry" />
        </mxCell>
        <mxCell id="qfNypd04JLW2_YkX-gpg-13" value="" style="whiteSpace=wrap;html=1;aspect=fixed;" vertex="1" parent="1">
          <mxGeometry x="340" y="275" width="170" height="170" as="geometry" />
        </mxCell>
        <mxCell id="qfNypd04JLW2_YkX-gpg-14" value="" style="whiteSpace=wrap;html=1;aspect=fixed;" vertex="1" parent="1">
          <mxGeometry x="340" y="465" width="170" height="170" as="geometry" />
        </mxCell>
        <mxCell id="qfNypd04JLW2_YkX-gpg-18" value="" style="whiteSpace=wrap;html=1;aspect=fixed;" vertex="1" parent="1">
          <mxGeometry x="340" y="850" width="170" height="170" as="geometry" />
        </mxCell>
        <mxCell id="qfNypd04JLW2_YkX-gpg-21" value="" style="whiteSpace=wrap;html=1;aspect=fixed;" vertex="1" parent="1">
          <mxGeometry x="340.5" y="655" width="170" height="170" as="geometry" />
        </mxCell>
      </root>
    </mxGraphModel>
  </diagram>
</mxfile>
